<svg xmlns="http://www.w3.org/2000/svg" viewBox="0 0 239.35 49.98"><defs><style>.cls-1{fill:#b4c655;}.cls-2{fill:#e9a134;}.cls-3{fill:#fff;}.cls-4{fill:#0086c5;}</style></defs><g id="Capa_2" data-name="Capa 2"><g id="Capa_1-2" data-name="Capa 1"><path class="cls-1" d="M49.79,0H239.35a0,0,0,0,1,0,0V50a0,0,0,0,1,0,0H49.79a8,8,0,0,1-8-8V8A8,8,0,0,1,49.79,0Z"/><circle class="cls-2" cx="24.99" cy="24.99" r="24.99"/><path class="cls-3" d="M8.31,29.84a9.23,9.23,0,0,0,3.83,5.27l.61-.8a1,1,0,0,1,1.4-.4L19.33,36a1,1,0,0,1,.63.78,4.34,4.34,0,0,1-4.3,5A11.06,11.06,0,0,1,12.12,41a14.28,14.28,0,0,1-6.73-5.22,14.06,14.06,0,0,1-2.66-8.33A14.56,14.56,0,0,1,3,24.89,4.28,4.28,0,0,1,8,21.57a5.58,5.58,0,0,1,1.1.4.92.92,0,0,1,.56.83c.14,1.89.27,3.78.41,5.67a1,1,0,0,1-.66,1l-.56.19Z"/><path class="cls-3" d="M24.6,28.13v2.38H15.09V28.62L19.94,24c1.12-1.06,1.32-1.71,1.32-2.32,0-1-.69-1.57-2-1.57a3.08,3.08,0,0,0-2.6,1.26l-2.12-1.36a5.81,5.81,0,0,1,5-2.34c2.81,0,4.68,1.44,4.68,3.72,0,1.22-.35,2.34-2.11,4l-2.89,2.73Z"/><path class="cls-3" d="M37.14,27.86h-2v2.65H32.25V27.86H25.48v-2l5.93-8h3.05L29,25.49h3.38V23.14h2.75v2.35h2Z"/><path class="cls-3" d="M45,26.69v3.82H43.08V27c0-1.08-.49-1.57-1.35-1.57s-1.6.57-1.6,1.8v3.3H38.19V21.3h1.94v3.23a3,3,0,0,1,2.12-.8A2.62,2.62,0,0,1,45,26.69Z"/><path class="cls-4" d="M57.3,8.36h3V19H66.9v2.48H57.3Z"/><path class="cls-4" d="M70.69,7.4h3.14l-3.38,2.7H68.16Zm-2.28,4h2.92V21.47H68.41Z"/><path class="cls-4" d="M84.34,15.7v5.77H81.42V16.15c0-1.63-.75-2.38-2-2.38S77,14.63,77,16.48v5H74V11.39h2.79v1.18a4.43,4.43,0,0,1,3.34-1.33C82.54,11.24,84.34,12.63,84.34,15.7Z"/><path class="cls-4" d="M96.91,17.25H89.29a2.68,2.68,0,0,0,2.88,2,3.39,3.39,0,0,0,2.53-1L96.25,20a5.28,5.28,0,0,1-4.15,1.62c-3.49,0-5.75-2.19-5.75-5.18a5.13,5.13,0,0,1,5.37-5.19A5,5,0,0,1,97,16.47C97,16.69,96.93,17,96.91,17.25Zm-7.66-1.7h5a2.51,2.51,0,0,0-5,0Z"/><path class="cls-4" d="M107.55,15.72v5.75h-2.74V20.21a3.29,3.29,0,0,1-3.07,1.4c-2.36,0-3.76-1.31-3.76-3.05s1.25-3,4.32-3h2.33c0-1.26-.75-2-2.33-2a4.86,4.86,0,0,0-2.9.94l-1.05-2a7.75,7.75,0,0,1,4.35-1.22C105.77,11.24,107.55,12.67,107.55,15.72Zm-2.92,2.56v-1h-2c-1.36,0-1.8.51-1.8,1.18s.62,1.22,1.65,1.22A2.16,2.16,0,0,0,104.63,18.28Z"/><path class="cls-4" d="M125.75,7.57v13.9H123V20.3a3.88,3.88,0,0,1-3.15,1.31,4.89,4.89,0,0,1-5-5.18,4.9,4.9,0,0,1,5-5.19,3.89,3.89,0,0,1,3,1.22V7.57Zm-2.86,8.86a2.58,2.58,0,1,0-5.15,0,2.58,2.58,0,1,0,5.15,0Z"/><path class="cls-4" d="M138.26,17.25h-7.62a2.68,2.68,0,0,0,2.88,2,3.39,3.39,0,0,0,2.53-1L137.61,20a5.3,5.3,0,0,1-4.16,1.62c-3.48,0-5.75-2.19-5.75-5.18a5.13,5.13,0,0,1,5.38-5.19,5,5,0,0,1,5.24,5.23C138.32,16.69,138.28,17,138.26,17.25Zm-7.66-1.7h5a2.51,2.51,0,0,0-5,0Z"/><path class="cls-4" d="M154.48,15.72v5.75h-2.73V20.21a3.3,3.3,0,0,1-3.07,1.4c-2.36,0-3.77-1.31-3.77-3.05s1.26-3,4.33-3h2.32c0-1.26-.75-2-2.32-2a4.84,4.84,0,0,0-2.9.94l-1.05-2a7.69,7.69,0,0,1,4.34-1.22C152.7,11.24,154.48,12.67,154.48,15.72Zm-2.92,2.56v-1h-2c-1.37,0-1.8.51-1.8,1.18s.62,1.22,1.65,1.22A2.15,2.15,0,0,0,151.56,18.28Z"/><path class="cls-4" d="M163.62,21a4.18,4.18,0,0,1-2.38.63c-2.37,0-3.76-1.21-3.76-3.61V13.86h-1.55V11.62h1.55V9.16h2.92v2.46h2.51v2.24H160.4V18a1.17,1.17,0,0,0,1.26,1.33,1.94,1.94,0,0,0,1.17-.37Z"/><path class="cls-4" d="M174.76,17.25h-7.62a2.68,2.68,0,0,0,2.89,2,3.38,3.38,0,0,0,2.52-1L174.11,20A5.3,5.3,0,0,1,170,21.61c-3.48,0-5.75-2.19-5.75-5.18a5.13,5.13,0,0,1,5.38-5.19,5,5,0,0,1,5.24,5.23C174.82,16.69,174.78,17,174.76,17.25Zm-7.65-1.7h5a2.51,2.51,0,0,0-5,0Z"/><path class="cls-4" d="M187.07,15.7v5.77h-2.92V16.15c0-1.63-.75-2.38-2-2.38s-2.42.86-2.42,2.71v5h-2.92V11.39h2.79v1.18a4.43,4.43,0,0,1,3.33-1.33C185.27,11.24,187.07,12.63,187.07,15.7Z"/><path class="cls-4" d="M189.08,16.43c0-3,2.34-5.19,5.61-5.19a4.63,4.63,0,0,1,4.52,2.57L196.94,15a2.52,2.52,0,0,0-2.27-1.38A2.58,2.58,0,0,0,192,16.43a2.58,2.58,0,0,0,2.64,2.79,2.47,2.47,0,0,0,2.27-1.39l2.27,1.24a4.68,4.68,0,0,1-4.52,2.54C191.42,21.61,189.08,19.46,189.08,16.43Z"/><path class="cls-4" d="M200.54,8.36a1.67,1.67,0,0,1,1.81-1.63,1.64,1.64,0,0,1,1.82,1.57,1.82,1.82,0,0,1-3.63.06Zm.35,3h2.92V21.47h-2.92Z"/><path class="cls-4" d="M205.78,16.43c0-3,2.34-5.19,5.54-5.19s5.53,2.16,5.53,5.19-2.32,5.18-5.53,5.18S205.78,19.46,205.78,16.43Zm8.11,0a2.58,2.58,0,1,0-5.15,0,2.58,2.58,0,1,0,5.15,0Zm-1.78-9h3.15l-3.39,2.7h-2.29Z"/><path class="cls-4" d="M229.1,15.7v5.77h-2.92V16.15c0-1.63-.75-2.38-2.05-2.38s-2.41.86-2.41,2.71v5H218.8V11.39h2.79v1.18a4.39,4.39,0,0,1,3.33-1.33C227.3,11.24,229.1,12.63,229.1,15.7Z"/><path class="cls-4" d="M67.35,24.57v13.9H64.56V37.3a3.86,3.86,0,0,1-3.14,1.31,4.89,4.89,0,0,1-5-5.18,4.9,4.9,0,0,1,5-5.19,3.88,3.88,0,0,1,3,1.22V24.57Zm-2.86,8.86a2.58,2.58,0,1,0-5.15,0,2.58,2.58,0,1,0,5.15,0Z"/><path class="cls-4" d="M79.86,34.25H72.24a2.69,2.69,0,0,0,2.89,2,3.42,3.42,0,0,0,2.53-1L79.21,37a5.3,5.3,0,0,1-4.16,1.62c-3.48,0-5.74-2.19-5.74-5.18a5.13,5.13,0,0,1,5.37-5.19,5,5,0,0,1,5.24,5.23C79.92,33.69,79.88,34,79.86,34.25Zm-7.65-1.7h5a2.51,2.51,0,0,0-5,0Z"/><path class="cls-4" d="M97,34.25H89.36a2.68,2.68,0,0,0,2.89,2,3.38,3.38,0,0,0,2.52-1L96.33,37a5.3,5.3,0,0,1-4.16,1.62c-3.48,0-5.75-2.19-5.75-5.18a5.13,5.13,0,0,1,5.38-5.19A5,5,0,0,1,97,33.47C97,33.69,97,34,97,34.25Zm-7.65-1.7h5a2.51,2.51,0,0,0-5,0Z"/><path class="cls-4" d="M116,32.7v5.77h-2.92V33.15c0-1.63-.73-2.38-1.91-2.38s-2.23.84-2.23,2.64v5.06H106V33.15c0-1.63-.69-2.38-1.91-2.38s-2.21.84-2.21,2.64v5.06H99V28.39h2.79v1.16a4.08,4.08,0,0,1,3.16-1.31,3.77,3.77,0,0,1,3.32,1.65,4.51,4.51,0,0,1,3.63-1.65C114.29,28.24,116,29.63,116,32.7Z"/><path class="cls-4" d="M128.56,34.25h-7.62a2.68,2.68,0,0,0,2.88,2,3.39,3.39,0,0,0,2.53-1L127.9,37a5.28,5.28,0,0,1-4.15,1.62c-3.48,0-5.75-2.19-5.75-5.18a5.13,5.13,0,0,1,5.37-5.19,5,5,0,0,1,5.25,5.23C128.62,33.69,128.58,34,128.56,34.25Zm-7.66-1.7h5a2.51,2.51,0,0,0-5,0Z"/><path class="cls-4" d="M136.82,28.24v2.7c-.24,0-.43,0-.65,0a2.48,2.48,0,0,0-2.68,2.81v4.76h-2.92V28.39h2.79v1.33A4.07,4.07,0,0,1,136.82,28.24Z"/><path class="cls-4" d="M148.86,28.39v8.39c0,3.74-2,5.47-5.65,5.47a8.25,8.25,0,0,1-4.94-1.39l1.16-2.09A6,6,0,0,0,143,39.91c2.06,0,3-.94,3-2.76v-.43A4.12,4.12,0,0,1,142.76,38a4.87,4.87,0,1,1,0-9.74,4.06,4.06,0,0,1,3.33,1.44V28.39ZM146,33.11a2.66,2.66,0,1,0-2.64,2.47A2.45,2.45,0,0,0,146,33.11Z"/><path class="cls-4" d="M161.39,34.25h-7.62a2.68,2.68,0,0,0,2.89,2,3.38,3.38,0,0,0,2.52-1L160.74,37a5.3,5.3,0,0,1-4.16,1.62c-3.48,0-5.75-2.19-5.75-5.18a5.13,5.13,0,0,1,5.38-5.19,5,5,0,0,1,5.24,5.23C161.45,33.69,161.41,34,161.39,34.25Zm-7.66-1.7h5a2.52,2.52,0,0,0-5,0Z"/><path class="cls-4" d="M173.7,32.7v5.77h-2.92V33.15c0-1.63-.75-2.38-2-2.38s-2.42.86-2.42,2.71v5H163.4V28.39h2.79v1.18a4.43,4.43,0,0,1,3.33-1.33C171.9,28.24,173.7,29.63,173.7,32.7Z"/><path class="cls-4" d="M175.7,33.43c0-3,2.34-5.19,5.62-5.19a4.62,4.62,0,0,1,4.51,2.57L183.57,32a2.53,2.53,0,0,0-2.27-1.38,2.58,2.58,0,0,0-2.64,2.79,2.58,2.58,0,0,0,2.64,2.79,2.48,2.48,0,0,0,2.27-1.39l2.26,1.24a4.66,4.66,0,0,1-4.51,2.54C178,38.61,175.7,36.46,175.7,33.43Z"/><path class="cls-4" d="M187.17,25.36A1.67,1.67,0,0,1,189,23.73a1.64,1.64,0,0,1,1.82,1.57,1.82,1.82,0,0,1-3.63.06Zm.35,3h2.92V38.47h-2.92Z"/><path class="cls-4" d="M202.07,32.72v5.75h-2.73V37.21a3.3,3.3,0,0,1-3.07,1.4c-2.36,0-3.77-1.31-3.77-3s1.26-3,4.33-3h2.32c0-1.26-.75-2-2.32-2a4.84,4.84,0,0,0-2.9.94l-1.05-2a7.69,7.69,0,0,1,4.34-1.22C200.29,28.24,202.07,29.67,202.07,32.72Zm-2.92,2.56v-1h-2c-1.37,0-1.8.51-1.8,1.18s.62,1.22,1.65,1.22A2.15,2.15,0,0,0,199.15,35.28Z"/><path class="cls-4" d="M203.74,37.53l1-2.1a6.86,6.86,0,0,0,3.5,1c1.34,0,1.85-.36,1.85-.92,0-1.65-6.09,0-6.09-4,0-1.91,1.73-3.26,4.67-3.26a8.28,8.28,0,0,1,3.87.88l-1,2.08a5.81,5.81,0,0,0-2.9-.75c-1.31,0-1.88.41-1.88.94,0,1.72,6.09.05,6.09,4,0,1.88-1.74,3.2-4.76,3.2A8.64,8.64,0,0,1,203.74,37.53Z"/></g></g></svg>