<svg xmlns="http://www.w3.org/2000/svg" viewBox="0 0 411.03 35.99"><defs><style>.cls-1{fill:#b4c655;}.cls-2{fill:#0086c5;}.cls-3{fill:#fff;}</style></defs><g id="Capa_2" data-name="Capa 2"><g id="Capa_1-2" data-name="Capa 1"><circle class="cls-1" cx="17.99" cy="17.99" r="17.99"/><path class="cls-2" d="M18,26.77H8.68A2.48,2.48,0,0,1,5.92,24V13.41A2.46,2.46,0,0,1,8.6,10.68H27.37a2.47,2.47,0,0,1,2.7,2.71V24a2.48,2.48,0,0,1-2.75,2.75H18ZM8.74,12.33l.32.34,6.54,6.54a3.09,3.09,0,0,0,4.8,0q2.78-2.79,5.57-5.56c.41-.42.85-.81,1.27-1.21l-.07-.1Zm0,12.79H27.13L22,19.91a5.1,5.1,0,0,1-3.95,2,5.11,5.11,0,0,1-4-2.05ZM28.42,13.57l-5.09,5.1,5.09,5.17ZM12.69,18.73,7.57,13.59V23.86Z"/><path class="cls-3" d="M40.55,24l1-2.1a6.85,6.85,0,0,0,3.5,1c1.35,0,1.85-.35,1.85-.91,0-1.65-6.08,0-6.08-4,0-1.91,1.72-3.26,4.66-3.26a8.28,8.28,0,0,1,3.87.88l-1,2.08a5.78,5.78,0,0,0-2.9-.75c-1.31,0-1.87.41-1.87.94,0,1.72,6.08.05,6.08,4,0,1.87-1.74,3.2-4.75,3.2A8.65,8.65,0,0,1,40.55,24Z"/><path class="cls-3" d="M50.72,19.91c0-3,2.34-5.19,5.54-5.19s5.53,2.15,5.53,5.19-2.32,5.18-5.53,5.18S50.72,22.94,50.72,19.91Zm8.11,0a2.58,2.58,0,1,0-5.15,0,2.58,2.58,0,1,0,5.15,0Z"/><path class="cls-3" d="M63.74,11.05h2.92V24.94H63.74Z"/><path class="cls-3" d="M79.52,14.87V24.94H76.75V23.75a4.05,4.05,0,0,1-3.12,1.34c-2.53,0-4.31-1.42-4.31-4.53V14.87h2.92v5.26c0,1.69.75,2.44,2,2.44s2.32-.87,2.32-2.72v-5Z"/><path class="cls-3" d="M81.49,19.91c0-3,2.34-5.19,5.62-5.19a4.62,4.62,0,0,1,4.51,2.57L89.36,18.5a2.53,2.53,0,0,0-2.27-1.38,2.58,2.58,0,0,0-2.64,2.79,2.58,2.58,0,0,0,2.64,2.79,2.48,2.48,0,0,0,2.27-1.39l2.26,1.24a4.66,4.66,0,0,1-4.51,2.54C83.83,25.09,81.49,22.94,81.49,19.91Z"/><path class="cls-3" d="M93,11.84a1.67,1.67,0,0,1,1.81-1.63,1.64,1.64,0,0,1,1.82,1.57,1.82,1.82,0,0,1-3.63.06Zm.35,3h2.92V24.94H93.31Z"/><path class="cls-3" d="M98.2,19.91c0-3,2.34-5.19,5.54-5.19s5.53,2.15,5.53,5.19-2.33,5.18-5.53,5.18S98.2,22.94,98.2,19.91Zm8.11,0a2.58,2.58,0,1,0-5.15,0,2.58,2.58,0,1,0,5.15,0Z"/><path class="cls-3" d="M121.51,19.18v5.76h-2.92V19.63c0-1.63-.75-2.38-2-2.38s-2.41.86-2.41,2.71v5h-2.92V14.87H114v1.18a4.39,4.39,0,0,1,3.33-1.33C119.72,14.72,121.51,16.11,121.51,19.18Z"/><path class="cls-3" d="M134.08,20.73h-7.62a2.68,2.68,0,0,0,2.88,2,3.43,3.43,0,0,0,2.53-1l1.56,1.68a5.27,5.27,0,0,1-4.16,1.63c-3.48,0-5.75-2.19-5.75-5.18a5.13,5.13,0,0,1,5.38-5.19,5,5,0,0,1,5.24,5.22C134.14,20.17,134.1,20.49,134.08,20.73ZM126.42,19h5a2.52,2.52,0,0,0-5,0Z"/><path class="cls-3" d="M135.12,24l1-2.1a6.88,6.88,0,0,0,3.5,1c1.35,0,1.85-.35,1.85-.91,0-1.65-6.08,0-6.08-4,0-1.91,1.72-3.26,4.66-3.26a8.32,8.32,0,0,1,3.88.88l-1,2.08a5.78,5.78,0,0,0-2.9-.75c-1.31,0-1.87.41-1.87.94,0,1.72,6.08.05,6.08,4,0,1.87-1.74,3.2-4.75,3.2A8.58,8.58,0,0,1,135.12,24Z"/><path class="cls-3" d="M155.84,20.73h-7.62a2.68,2.68,0,0,0,2.89,2,3.42,3.42,0,0,0,2.52-1l1.56,1.68A5.27,5.27,0,0,1,151,25.09c-3.48,0-5.75-2.19-5.75-5.18a5.13,5.13,0,0,1,5.38-5.19,5,5,0,0,1,5.24,5.22C155.9,20.17,155.86,20.49,155.84,20.73ZM148.19,19h5a2.51,2.51,0,0,0-5,0Z"/><path class="cls-3" d="M168.15,19.18v5.76h-2.92V19.63c0-1.63-.75-2.38-2-2.38s-2.42.86-2.42,2.71v5h-2.92V14.87h2.79v1.18A4.43,4.43,0,0,1,164,14.72C166.35,14.72,168.15,16.11,168.15,19.18Z"/><path class="cls-3" d="M180.72,20.73H173.1a2.67,2.67,0,0,0,2.88,2,3.45,3.45,0,0,0,2.53-1l1.55,1.68a5.26,5.26,0,0,1-4.16,1.63c-3.48,0-5.74-2.19-5.74-5.18a5.13,5.13,0,0,1,5.37-5.19,5,5,0,0,1,5.24,5.22C180.77,20.17,180.73,20.49,180.72,20.73ZM173.06,19h5a2.51,2.51,0,0,0-5,0Z"/><path class="cls-3" d="M189,14.72v2.7c-.25,0-.43,0-.66,0a2.48,2.48,0,0,0-2.68,2.81v4.75h-2.92V14.87h2.79V16.2A4.09,4.09,0,0,1,189,14.72Z"/><path class="cls-3" d="M201,14.87v8.39c0,3.74-2,5.47-5.66,5.47a8.29,8.29,0,0,1-4.94-1.39l1.16-2.1a6,6,0,0,0,3.56,1.15c2.06,0,3-.94,3-2.76V23.2a4.12,4.12,0,0,1-3.18,1.26,4.87,4.87,0,1,1,0-9.74,4.06,4.06,0,0,1,3.33,1.44V14.87Zm-2.88,4.72a2.66,2.66,0,1,0-2.64,2.47A2.45,2.45,0,0,0,198.14,19.59Z"/><path class="cls-3" d="M213.55,20.73h-7.62a2.68,2.68,0,0,0,2.88,2,3.43,3.43,0,0,0,2.53-1l1.55,1.68a5.25,5.25,0,0,1-4.15,1.63c-3.48,0-5.75-2.19-5.75-5.18a5.13,5.13,0,0,1,5.37-5.19,5,5,0,0,1,5.25,5.22C213.61,20.17,213.57,20.49,213.55,20.73ZM205.89,19h5a2.51,2.51,0,0,0-5,0Z"/><path class="cls-3" d="M222.05,24.46a4.17,4.17,0,0,1-2.37.63c-2.38,0-3.77-1.21-3.77-3.61V17.34h-1.55V15.1h1.55V12.64h2.92V15.1h2.51v2.24h-2.51v4.1a1.18,1.18,0,0,0,1.26,1.33,2,2,0,0,0,1.18-.37Z"/><path class="cls-3" d="M223.35,11.84a1.67,1.67,0,0,1,1.81-1.63A1.64,1.64,0,0,1,227,11.78a1.82,1.82,0,0,1-3.63.06Zm.35,3h2.92V24.94H223.7Z"/><path class="cls-3" d="M228.59,19.91c0-3,2.34-5.19,5.62-5.19a4.63,4.63,0,0,1,4.51,2.57l-2.26,1.21a2.53,2.53,0,0,0-2.27-1.38,2.58,2.58,0,0,0-2.64,2.79,2.58,2.58,0,0,0,2.64,2.79,2.48,2.48,0,0,0,2.27-1.39l2.26,1.24a4.67,4.67,0,0,1-4.51,2.54C230.93,25.09,228.59,22.94,228.59,19.91Z"/><path class="cls-3" d="M249.32,19.2v5.74h-2.73V23.69a3.3,3.3,0,0,1-3.07,1.4c-2.36,0-3.77-1.31-3.77-3.05s1.26-3,4.33-3h2.32c0-1.26-.75-2-2.32-2a4.84,4.84,0,0,0-2.9.94l-1.05-2a7.69,7.69,0,0,1,4.34-1.22C247.54,14.72,249.32,16.14,249.32,19.2Zm-2.92,2.56v-1h-2c-1.37,0-1.8.51-1.8,1.18s.62,1.22,1.65,1.22A2.15,2.15,0,0,0,246.4,21.76Z"/><path class="cls-3" d="M251,24l1-2.1a6.85,6.85,0,0,0,3.5,1c1.34,0,1.85-.35,1.85-.91,0-1.65-6.09,0-6.09-4,0-1.91,1.73-3.26,4.67-3.26a8.28,8.28,0,0,1,3.87.88l-1,2.08a5.81,5.81,0,0,0-2.9-.75c-1.31,0-1.88.41-1.88.94,0,1.72,6.09.05,6.09,4,0,1.87-1.74,3.2-4.76,3.2A8.64,8.64,0,0,1,251,24Z"/><path class="cls-3" d="M279.21,19.81c0,3.36-1.54,5.26-3.84,5.26a2.49,2.49,0,0,1-2.56-1.62,3.55,3.55,0,0,1-3.2,1.62,4.39,4.39,0,0,1-4.33-4.73,4.39,4.39,0,0,1,4.33-4.72,3.58,3.58,0,0,1,2.88,1.24V15.75H275v6.07c0,.9.4,1.19.9,1.19.86,0,1.39-1,1.39-3.16,0-3.8-2.81-6.42-7-6.42a6.56,6.56,0,0,0-7,6.76A6.51,6.51,0,0,0,270.28,27a8.51,8.51,0,0,0,3.69-.82l.6,1.72a10.19,10.19,0,0,1-4.29.9c-5.41,0-9-3.67-9-8.61s3.62-8.54,9.06-8.54C275.61,11.65,279.21,15.11,279.21,19.81Zm-6.68.53a2.34,2.34,0,1,0-4.67,0,2.35,2.35,0,1,0,4.67,0Z"/><path class="cls-3" d="M290.21,19.2v5.74h-2.74V23.69a3.29,3.29,0,0,1-3.07,1.4c-2.36,0-3.76-1.31-3.76-3.05s1.25-3,4.32-3h2.33c0-1.26-.75-2-2.33-2a4.86,4.86,0,0,0-2.9.94l-1.05-2a7.75,7.75,0,0,1,4.35-1.22C288.43,14.72,290.21,16.14,290.21,19.2Zm-2.92,2.56v-1h-2c-1.36,0-1.8.51-1.8,1.18s.62,1.22,1.65,1.22A2.16,2.16,0,0,0,287.29,21.76Z"/><path class="cls-3" d="M296.05,14.67v.43h2.59v2.24h-2.51v7.6h-2.92v-7.6h-1.56V15.1h1.56v-.45c0-2.27,1.38-3.75,3.89-3.75a4.19,4.19,0,0,1,2.23.54l-.77,2.12a2.09,2.09,0,0,0-1.18-.36C296.52,13.2,296.05,13.67,296.05,14.67Zm5.19-2.83a1.67,1.67,0,0,1,1.81-1.63,1.64,1.64,0,0,1,1.82,1.57,1.82,1.82,0,0,1-3.63.06Zm.35,3h2.92V24.94h-2.92Z"/><path class="cls-3" d="M317.53,19.18v5.76h-2.92V19.63c0-1.63-.75-2.38-2-2.38s-2.42.86-2.42,2.71v5h-2.92V14.87H310v1.18a4.43,4.43,0,0,1,3.34-1.33C315.73,14.72,317.53,16.11,317.53,19.18Z"/><path class="cls-3" d="M319.82,11.84a1.67,1.67,0,0,1,1.82-1.63,1.63,1.63,0,0,1,1.81,1.57,1.82,1.82,0,0,1-3.63.06Zm.36,3h2.92V24.94h-2.92Z"/><path class="cls-3" d="M334.73,19.2v5.74H332V23.69a3.29,3.29,0,0,1-3.07,1.4c-2.36,0-3.76-1.31-3.76-3.05s1.25-3,4.32-3h2.32c0-1.26-.74-2-2.32-2a4.86,4.86,0,0,0-2.9.94l-1.05-2a7.75,7.75,0,0,1,4.35-1.22C333,14.72,334.73,16.14,334.73,19.2Zm-2.93,2.56v-1h-2c-1.37,0-1.8.51-1.8,1.18s.62,1.22,1.65,1.22A2.14,2.14,0,0,0,331.8,21.76Z"/><path class="cls-3" d="M336.66,23.26a1.82,1.82,0,0,1,3.63,0,1.82,1.82,0,1,1-3.63,0Z"/><path class="cls-3" d="M341.4,19.91c0-3,2.34-5.19,5.61-5.19a4.61,4.61,0,0,1,4.51,2.57l-2.26,1.21A2.52,2.52,0,0,0,347,17.12a2.58,2.58,0,0,0-2.64,2.79A2.58,2.58,0,0,0,347,22.7a2.47,2.47,0,0,0,2.27-1.39l2.26,1.24A4.65,4.65,0,0,1,347,25.09C343.74,25.09,341.4,22.94,341.4,19.91Z"/><path class="cls-3" d="M352.33,19.91c0-3,2.34-5.19,5.55-5.19s5.52,2.15,5.52,5.19-2.32,5.18-5.52,5.18S352.33,22.94,352.33,19.91Zm8.11,0a2.58,2.58,0,1,0-5.15,0,2.58,2.58,0,1,0,5.15,0Z"/><path class="cls-3" d="M382.37,19.18v5.76h-2.92V19.63c0-1.63-.73-2.38-1.91-2.38s-2.23.84-2.23,2.64v5.05h-2.92V19.63c0-1.63-.69-2.38-1.91-2.38s-2.21.84-2.21,2.64v5.05h-2.92V14.87h2.79V16a4.08,4.08,0,0,1,3.16-1.31,3.75,3.75,0,0,1,3.32,1.65,4.51,4.51,0,0,1,3.63-1.65C380.65,14.72,382.37,16.11,382.37,19.18Z"/><path class="cls-3" d="M384.29,23.26a1.82,1.82,0,0,1,3.63,0,1.82,1.82,0,1,1-3.63,0Z"/><path class="cls-3" d="M389,19.91c0-3,2.34-5.19,5.62-5.19a4.62,4.62,0,0,1,4.51,2.57l-2.26,1.21a2.53,2.53,0,0,0-2.27-1.38A2.58,2.58,0,0,0,392,19.91a2.58,2.58,0,0,0,2.64,2.79,2.48,2.48,0,0,0,2.27-1.39l2.26,1.24a4.66,4.66,0,0,1-4.51,2.54C391.36,25.09,389,22.94,389,19.91Z"/><path class="cls-3" d="M400,19.91c0-3,2.34-5.19,5.54-5.19S411,16.87,411,19.91s-2.32,5.18-5.53,5.18S400,22.94,400,19.91Zm8.11,0a2.58,2.58,0,1,0-5.15,0,2.58,2.58,0,1,0,5.15,0Z"/></g></g></svg>