<svg xmlns="http://www.w3.org/2000/svg" xmlns:xlink="http://www.w3.org/1999/xlink" viewBox="0 0 601.15 599.38"><defs><style>.cls-1{fill:none;}.cls-2{opacity:0.5;}.cls-3{clip-path:url(#clip-path);}.cls-4{fill:#fff;}</style><clipPath id="clip-path" transform="translate(94.38 -35.59)"><rect class="cls-1" width="511.88" height="670.55" transform="translate(511.88 670.55) rotate(-180)"/></clipPath></defs><title>cubo</title><g id="Capa_2" data-name="Capa 2"><g id="Capa_1-2" data-name="Capa 1"><g class="cls-2"><g class="cls-3"><path class="cls-4" d="M409.68,419.22a8.88,8.88,0,0,1-8.84-8.94V348.64a8.84,8.84,0,1,1,17.68,0v61.64A8.89,8.89,0,0,1,409.68,419.22Z" transform="translate(94.38 -35.59)"/><path class="cls-4" d="M409.68,295.94a8.88,8.88,0,0,1-8.84-8.94V262.24l-21-12.8a9,9,0,0,1-3-12.28,8.79,8.79,0,0,1,12.14-3l25.24,15.41a9,9,0,0,1,4.27,7.66V287a8.89,8.89,0,0,1-8.84,8.94Z" transform="translate(94.38 -35.59)"/><path class="cls-4" d="M333.4,219.57a8.74,8.74,0,0,1-4.56-1.29l-51-31.16a9,9,0,0,1-3-12.28,8.79,8.79,0,0,1,12.14-3L338,203a9,9,0,0,1,3,12.28A8.82,8.82,0,0,1,333.4,219.57Z" transform="translate(94.38 -35.59)"/><path class="cls-4" d="M134.9,187.17,84.28,218.31a8.73,8.73,0,0,1-4.58,1.3,8.83,8.83,0,0,1-7.57-4.3,9,9,0,0,1,3-12.29l50.62-31.14a8.79,8.79,0,0,1,12.15,3,9,9,0,0,1-3,12.29Z" transform="translate(94.38 -35.59)"/><path class="cls-4" d="M33.67,249.45,12.74,262.33v24.78a8.9,8.9,0,0,1-8.85,8.95,8.9,8.9,0,0,1-8.84-8.95V257.3A9,9,0,0,1-.7,249.66l25.18-15.5a8.79,8.79,0,0,1,12.15,3,9,9,0,0,1-3,12.29Z" transform="translate(94.38 -35.59)"/><path class="cls-4" d="M3.89,339.73a8.9,8.9,0,0,1,8.85,8.95v61.56a8.89,8.89,0,0,1-8.85,8.94,8.89,8.89,0,0,1-8.84-8.94V348.68A8.9,8.9,0,0,1,3.89,339.73Z" transform="translate(94.38 -35.59)"/><path class="cls-4" d="M84.28,540.61l50.62,31.14a9,9,0,0,1,3,12.29,8.83,8.83,0,0,1-7.57,4.3,8.65,8.65,0,0,1-4.58-1.31L75.09,555.89a9,9,0,0,1-3-12.28,8.79,8.79,0,0,1,12.15-3Z" transform="translate(94.38 -35.59)"/><path class="cls-4" d="M185.51,602.89l20.61,12.68L226.76,603a8.79,8.79,0,0,1,12.14,3,9,9,0,0,1-3,12.28l-25.23,15.41A8.76,8.76,0,0,1,206.1,635a8.85,8.85,0,0,1-4.6-1.3l-25.18-15.5a9,9,0,0,1-3-12.29,8.78,8.78,0,0,1,12.15-3Z" transform="translate(94.38 -35.59)"/><path class="cls-4" d="M277.8,571.8l51-31.16a8.79,8.79,0,0,1,12.14,3A9,9,0,0,1,338,556l-51,31.16a8.67,8.67,0,0,1-4.56,1.29,8.82,8.82,0,0,1-7.58-4.32A9,9,0,0,1,277.8,571.8Z" transform="translate(94.38 -35.59)"/><path class="cls-4" d="M206.2,270.61a8.89,8.89,0,0,1-8.85-8.94V254.8a8.85,8.85,0,1,1,17.69,0v6.87A8.89,8.89,0,0,1,206.2,270.61Z" transform="translate(94.38 -35.59)"/><path class="cls-4" d="M206.2,321.9a8.89,8.89,0,0,1-8.85-8.94v-6.87a8.85,8.85,0,1,1,17.69,0V313A8.89,8.89,0,0,1,206.2,321.9Z" transform="translate(94.38 -35.59)"/><path class="cls-4" d="M-57.37,504.31a37.26,37.26,0,0,0-37,37.43,37.26,37.26,0,0,0,37,37.43c20.4,0,37-16.79,37-37.43a37.49,37.49,0,0,0-2.35-13.11L4.87,512.69l19.61,12.06a8.68,8.68,0,0,0,4.59,1.31,8.81,8.81,0,0,0,7.56-4.3,9,9,0,0,0-3-12.29l-11.25-6.92L54,484.29l53.64,33a8.79,8.79,0,0,0,12.15-3,9,9,0,0,0-3-12.29L62.26,468.43V301.37l135.1,83.12V551.55l-48-29.52a8.79,8.79,0,0,0-12.15,3,9,9,0,0,0,3,12.28l56.92,35a17.54,17.54,0,0,0,2.78,1.38,8.75,8.75,0,0,0,12.62,0,17.48,17.48,0,0,0,2.78-1.37L359,484.63l31.64,18.29-10.75,6.56a9,9,0,0,0-3,12.28,8.83,8.83,0,0,0,7.58,4.32A8.7,8.7,0,0,0,389,524.8l19.19-11.72,26.91,15.55a37.48,37.48,0,0,0,34.66,50.54c20.4,0,37-16.79,37-37.43s-16.6-37.43-37-37.43a36.57,36.57,0,0,0-24.62,9.52l-26.63-15.39V471.92a8.84,8.84,0,1,0-17.68,0v16.3L369,469.79c0-.43.05-.86.05-1.29V383.59a8.84,8.84,0,1,0-17.68,0v83.46a9,9,0,0,0-1.52,2,4.93,4.93,0,0,0-.23.46L215,551.62V384.51L351.32,301.3v44.17a8.84,8.84,0,1,0,17.68,0V290.42a17.86,17.86,0,0,0-8.47-15.18L215.28,186.55l-.24-.13V148.8L226.76,156a8.79,8.79,0,0,0,12.14-3,9,9,0,0,0-3-12.28L215,127.9V109.36a37,37,0,1,0-17.69,0V127.8l-21,12.94a9,9,0,0,0-3,12.29,8.78,8.78,0,0,0,12.15,3l11.84-7.29v37.7l-.25.14L53,275.25a17.88,17.88,0,0,0-8.42,15.15V468.52c0,.2,0,.4,0,.61L12.74,487.54V471.8a8.89,8.89,0,0,0-8.85-8.94,8.89,8.89,0,0,0-8.84,8.94v26l-27.8,16.07a36.61,36.61,0,0,0-24.62-9.52Zm507.82,37.43a19.32,19.32,0,1,1,19.32,19.54A19.44,19.44,0,0,1,450.45,541.74ZM206.2,92.56A19.55,19.55,0,1,1,225.52,73,19.45,19.45,0,0,1,206.2,92.56Zm136.85,192.9L215,363.61V353.07a8.85,8.85,0,1,0-17.69,0v10.48L70.43,285.46l126.92-78.09v9.34a8.85,8.85,0,1,0,17.69,0V207.3ZM-76.69,541.74A19.44,19.44,0,0,1-57.37,522.2,19.45,19.45,0,0,1-38,541.74a19.46,19.46,0,0,1-19.32,19.54A19.45,19.45,0,0,1-76.69,541.74Z" transform="translate(94.38 -35.59)"/></g></g></g></g></svg>