<svg xmlns="http://www.w3.org/2000/svg" viewBox="0 0 706.25 701.57"><defs><style>.cls-1{fill:#08acd8;}</style></defs><title>Recurso 4</title><g id="Capa_2" data-name="Capa 2"><g id="Capa_1-2" data-name="Capa 1"><path class="cls-1" d="M202,637.27l-.48-.25a13.84,13.84,0,0,0-18.63,5.75,13.66,13.66,0,0,0,5.79,18.51l.48.25a13.83,13.83,0,0,0,18.63-5.75A13.66,13.66,0,0,0,202,637.27Z"/><path class="cls-1" d="M505.14,34.08l-.5-.24a13.84,13.84,0,0,0-18.38,6.5,13.67,13.67,0,0,0,6.53,18.26l.37.17a13.72,13.72,0,1,0,12-24.69Z"/><path class="cls-1" d="M633.53,137.58a46.45,46.45,0,0,0-6.61-57.41A47.18,47.18,0,0,0,560.59,80a46.42,46.42,0,0,0-.16,65.88,47.19,47.19,0,0,0,52.25,9.72,322.63,322.63,0,0,1,66,196,318.94,318.94,0,0,1-31.19,137.49A13.65,13.65,0,0,0,654,507.34a13.84,13.84,0,0,0,18.37-6.52,345.83,345.83,0,0,0,33.84-149.15A349.92,349.92,0,0,0,633.53,137.58Zm-26.24-11a1.37,1.37,0,0,1-.18.16l0,0c-.16.13-.3.27-.45.4a19.4,19.4,0,0,1-26.65-.65,19.11,19.11,0,0,1,.06-27.13,19.25,19.25,0,1,1,27.24,27.2Z"/><path class="cls-1" d="M145.83,555.68A47.19,47.19,0,0,0,93.57,546a322.62,322.62,0,0,1-66-196A319.28,319.28,0,0,1,54.65,221.49a13.67,13.67,0,0,0-7.12-18,13.83,13.83,0,0,0-18.16,7.07A346.25,346.25,0,0,0,0,349.9,350,350,0,0,0,72.73,564a46.43,46.43,0,0,0,6.6,57.41,47.19,47.19,0,0,0,66.33.16A46.42,46.42,0,0,0,145.83,555.68ZM126.2,602.14a19.42,19.42,0,0,1-27.31-.07A19.12,19.12,0,0,1,99,574.94l.18-.16,0,0c.16-.13.3-.27.45-.41a19.39,19.39,0,0,1,26.66.65A19.13,19.13,0,0,1,126.2,602.14Z"/><path class="cls-1" d="M625.71,556.87a47.18,47.18,0,0,0-66.32-.16,46.44,46.44,0,0,0-9.79,51.91,328,328,0,0,1-306.29,46.69A13.71,13.71,0,1,0,234,681.1a355.56,355.56,0,0,0,333.75-51.78,47.2,47.2,0,0,0,57.79-6.56A46.43,46.43,0,0,0,625.71,556.87Zm-19.62,46.46a19.41,19.41,0,0,1-27.31-.06l-.17-.19v0c-.13-.15-.27-.29-.41-.44a19.1,19.1,0,0,1,.66-26.48,19.41,19.41,0,0,1,27.31.07A19.1,19.1,0,0,1,606.09,603.33Z"/><path class="cls-1" d="M458,15.74A355.7,355.7,0,0,0,138.5,72.24a47.21,47.21,0,0,0-57.79,6.57,46.42,46.42,0,0,0-.17,65.88A46.8,46.8,0,0,0,156.65,93a328,328,0,0,1,293.18-51A13.71,13.71,0,1,0,458,15.74ZM127.41,125.43a19.42,19.42,0,0,1-27.31-.07A19.24,19.24,0,0,1,127.47,98.3c.06.06.11.13.17.18v0c0,.07.11.12.16.18A19.1,19.1,0,0,1,127.41,125.43Z"/><path class="cls-1" d="M615.25,306.51a13.75,13.75,0,0,0-13.76-13.73l-28.21-.07a223.18,223.18,0,0,0-22.61-54.61l20-19.77a13.64,13.64,0,0,0,.05-19.38l-63.66-63.56a13.86,13.86,0,0,0-19.51,0l-20,19.77a226.26,226.26,0,0,0-54.87-22.73l.07-28A13.74,13.74,0,0,0,399,90.63l-90.25-.26h0a13.79,13.79,0,0,0-9.76,4,13.62,13.62,0,0,0-4.07,9.68l-.07,28.06a225.54,225.54,0,0,0-55,22.45l-20-20a13.86,13.86,0,0,0-19.5,0l-64,63.2a13.64,13.64,0,0,0-.06,19.38l20,20a223.33,223.33,0,0,0-22.88,54.51l-28.39-.08a13.76,13.76,0,0,0-13.83,13.67L91,394.86a13.6,13.6,0,0,0,4,9.7,13.82,13.82,0,0,0,9.74,4l28.43.07a222.83,222.83,0,0,0,22.6,54.62l-20.18,19.95a13.63,13.63,0,0,0-.05,19.38l63.65,63.55a13.86,13.86,0,0,0,19.51.05l20.19-20A226.26,226.26,0,0,0,293.75,569l-.07,28.24a13.66,13.66,0,0,0,4,9.7,13.84,13.84,0,0,0,9.74,4h0l90.25.19a13.76,13.76,0,0,0,13.83-13.67l.07-28.21a226.33,226.33,0,0,0,55-22.45l20,20a13.87,13.87,0,0,0,19.51,0l64-63.24a13.64,13.64,0,0,0,0-19.38l-20-20A222.87,222.87,0,0,0,573,409.77l28.25.07a13.83,13.83,0,0,0,9.77-4,13.67,13.67,0,0,0,4.06-9.68Zm-53.06,75.83a13.8,13.8,0,0,0-13.52,10.79,196.24,196.24,0,0,1-27.57,65.7A13.62,13.62,0,0,0,522.89,476l17.94,17.91-44.42,43.91-18-17.92A13.85,13.85,0,0,0,461.23,518,199,199,0,0,1,395,545.06,13.72,13.72,0,0,0,384,558.43L384,583.74l-62.66-.14.06-25.32a13.73,13.73,0,0,0-10.86-13.43,198.73,198.73,0,0,1-66.13-27.39,13.89,13.89,0,0,0-17.25,1.77L209,537.13,164.81,493l18.11-17.89A13.65,13.65,0,0,0,184.8,458a196,196,0,0,1-27.25-65.83,13.76,13.76,0,0,0-13.46-10.85l-25.49-.07.18-62.25,25.47.07a13.8,13.8,0,0,0,13.52-10.79,196.36,196.36,0,0,1,27.57-65.7,13.63,13.63,0,0,0-1.78-17.13l-17.94-17.91,44.44-43.88L228,181.53a13.87,13.87,0,0,0,17.23,1.86,198.86,198.86,0,0,1,66.27-27.06A13.72,13.72,0,0,0,322.41,143l.07-25.15,62.66.18-.06,25.13a13.72,13.72,0,0,0,10.86,13.42,198.94,198.94,0,0,1,66.13,27.39,13.87,13.87,0,0,0,17.25-1.77l17.92-17.72,44.2,44.13-17.93,17.72a13.64,13.64,0,0,0-1.87,17.12,196,196,0,0,1,27.24,65.83,13.77,13.77,0,0,0,13.46,10.85l25.29.07-.13,62.24Z"/><path class="cls-1" d="M466.17,315a13.79,13.79,0,0,0-26.29,8.31,89.75,89.75,0,0,1-22.54,91.6,91.57,91.57,0,0,1-128.75-.32,90.1,90.1,0,0,1,.33-127.89,91.47,91.47,0,0,1,90.49-22.5,13.71,13.71,0,1,0,7.94-26.25,119.14,119.14,0,0,0-117.89,29.32A117.42,117.42,0,0,0,269,433.9a119.33,119.33,0,0,0,167.77.42A116.93,116.93,0,0,0,466.17,315Z"/><path class="cls-1" d="M438.49,269c-.41-.43-.84-.86-1.26-1.28a13.86,13.86,0,0,0-19.51-.07,13.64,13.64,0,0,0-.06,19.38l1,1a13.84,13.84,0,0,0,19.5.34A13.63,13.63,0,0,0,438.49,269Z"/></g></g></svg>