<svg xmlns="http://www.w3.org/2000/svg" viewBox="0 0 616.76 726.97"><defs><style>.cls-1{opacity:0.6;}.cls-2{fill:#fff;}</style></defs><title>Recurso 5</title><g id="Capa_2" data-name="Capa 2"><g id="Capa_1-2" data-name="Capa 1"><g class="cls-1"><path class="cls-2" d="M534.08,558.34a454.74,454.74,0,0,0,82.68-262.16V86a22.19,22.19,0,0,0-17.35-21.64L313.2.53a22.13,22.13,0,0,0-9.65,0L17.34,64.33A22.17,22.17,0,0,0,0,86V296.18A457,457,0,0,0,300.81,725.63a22.05,22.05,0,0,0,15.14,0A454.7,454.7,0,0,0,534.08,558.34ZM308.37,681.13a412.66,412.66,0,0,1-264-384.95V103.74l264-58.87,264,58.87V296.18a412.65,412.65,0,0,1-264,385Z"/><path class="cls-2" d="M534.72,151.73a22.17,22.17,0,0,0-17.35-21.64L313.2,84.57a22.43,22.43,0,0,0-9.65,0L99.37,130.09A22.17,22.17,0,0,0,109,173.36l199.35-44.44,182,40.58V296.18a330.66,330.66,0,0,1-182,295.36,330.76,330.76,0,0,1-181-269c-.39-4.88-.67-9.82-.83-14.68a22.17,22.17,0,1,0-44.31,1.52c.2,5.52.51,11.12.94,16.64A375,375,0,0,0,299.07,636.26a22.17,22.17,0,0,0,18.62,0,374.73,374.73,0,0,0,149.2-125,373.17,373.17,0,0,0,67.83-215.1V151.73Z"/><path class="cls-2" d="M245.23,411.24a22.08,22.08,0,0,0,15.44,7.8c.5,0,1,.06,1.48.06A22.16,22.16,0,0,0,277,413.37L437.72,268A22.17,22.17,0,0,0,408,235.1l-143.7,130-41-48.51a22.16,22.16,0,1,0-33.85,28.62Z"/><path class="cls-2" d="M91.89,248.47a22.17,22.17,0,1,0-8.28-26.57A22.34,22.34,0,0,0,91.89,248.47Z"/></g></g></g></svg>