<svg xmlns="http://www.w3.org/2000/svg" viewBox="0 0 794.3 794.3"><defs><style>.cls-1{opacity:0.6;}.cls-2{fill:#fff;}</style></defs><title>Recurso 3</title><g id="Capa_2" data-name="Capa 2"><g id="Capa_1-2" data-name="Capa 1"><g class="cls-1"><path class="cls-2" d="M264.77,0C155.1,0,66.19,88.91,66.19,198.57V344.2a92.77,92.77,0,0,0,92.67,92.66H172.1V410.39H158.86A66.27,66.27,0,0,1,92.67,344.2V198.57a172.1,172.1,0,0,1,344.19,0V344.2a66.27,66.27,0,0,1-66.19,66.19H357.43v26.47h13.24a92.76,92.76,0,0,0,92.67-92.66V198.57C463.34,88.91,374.44,0,264.77,0Z"/><path class="cls-2" d="M109.1,623.91l9.67-15.24L96.41,594.48l-9.67,15.25A132,132,0,0,0,92.2,759.1v35.2h26.48V754.58a13.24,13.24,0,0,0-2.9-8.27A105.46,105.46,0,0,1,109.1,623.91Z"/><path class="cls-2" d="M728.11,0H556a66.26,66.26,0,0,0-66.19,66.19V198.57A66.28,66.28,0,0,0,556,264.77h26.48v53a13.23,13.23,0,0,0,22.59,9.36l62.32-62.31h60.71a66.29,66.29,0,0,0,66.19-66.2V66.19A66.27,66.27,0,0,0,728.11,0Zm39.71,198.57a39.71,39.71,0,0,1-39.71,39.72H661.92a13.23,13.23,0,0,0-9.36,3.88L609,285.76V251.53a13.24,13.24,0,0,0-13.24-13.24H556a39.72,39.72,0,0,1-39.72-39.72V66.19A39.71,39.71,0,0,1,556,26.48h172.1a39.71,39.71,0,0,1,39.71,39.71Z"/><rect class="cls-2" x="556.01" y="66.19" width="92.67" height="26.48"/><rect class="cls-2" x="675.15" y="66.19" width="52.95" height="26.48"/><rect class="cls-2" x="556.01" y="119.14" width="172.1" height="26.48"/><rect class="cls-2" x="556.01" y="172.1" width="92.67" height="26.48"/><path class="cls-2" d="M442.79,609.73l-9.67-15.25-22.36,14.19,9.68,15.25a105.45,105.45,0,0,1-6.69,122.39,13.24,13.24,0,0,0-2.9,8.27V794.3h26.48V759.1A132,132,0,0,0,442.79,609.73Z"/><path class="cls-2" d="M781.06,450.1H661.92A92.67,92.67,0,0,0,569.43,539l-39.9,71.83V556a92.77,92.77,0,0,0-92.67-92.67H388.48l-.36-.28-.24.28H357.43A26.47,26.47,0,0,1,331,436.86V405.71a132.37,132.37,0,0,0,66.19-114.47V185.34a132.64,132.64,0,0,0-15.89-62.83,13.24,13.24,0,0,0-17.21-5.7L140,222.24a13.26,13.26,0,0,0-7.6,12v57a132.39,132.39,0,0,0,66.19,114.47v31.15a26.47,26.47,0,0,1-26.47,26.48H92.67A92.77,92.77,0,0,0,0,556V794.3H26.48V556a66.26,66.26,0,0,1,66.19-66.19h42.12L254,656.38a13.24,13.24,0,0,0,10.59,5.54h.18a13.26,13.26,0,0,0,10.59-5.3l125.76-166.8h35.74A66.28,66.28,0,0,1,503.06,556V661.92a13.23,13.23,0,0,0,24.8,6.42L590.27,556h75.89L537.09,794.3h30.12L696.33,556h5.3a92.79,92.79,0,0,0,92.67-92.67A13.24,13.24,0,0,0,781.06,450.1ZM158.86,291.24V242.63l204.41-96.19a105.93,105.93,0,0,1,7.4,38.9v105.9a105.91,105.91,0,1,1-211.81,0ZM265,626.33l-40.85-57.08h83.88Zm63.06-83.56H205.19l-37.9-52.95h4.81a53,53,0,0,0,53-53V417.52a132.23,132.23,0,0,0,79.43,0v19.34a53,53,0,0,0,52.95,53H368Zm373.53-13.24H597.05a66.29,66.29,0,0,1,64.87-52.95H766.5A66.3,66.3,0,0,1,701.63,529.53Z"/></g></g></g></svg>