<svg xmlns="http://www.w3.org/2000/svg" viewBox="0 0 636.65 645.87"><defs><style>.cls-1{opacity:0.5;}.cls-2{fill:#fff;}</style></defs><title>Recurso 7</title><g id="Capa_2" data-name="Capa 2"><g id="Capa_1-2" data-name="Capa 1"><g class="cls-1"><path class="cls-2" d="M48.59,194.09A19.3,19.3,0,0,0,62.94,197l60.91-11.58a18.88,18.88,0,0,0,15.07-22.21,19.22,19.22,0,0,0-22.45-15.08L101.58,151c62.64-86.94,172-129.67,279-107C502.89,69.86,592.48,174.5,598.44,298.44a19.15,19.15,0,0,0,15.18,17.76,20.22,20.22,0,0,0,4.82.4,18.93,18.93,0,0,0,18.19-19.78c-6.79-141.23-108.87-260.48-248.25-290-122.59-26-247.95,23.44-319.13,123.64l-3.2-16.19A19.23,19.23,0,0,0,43.6,99.21a18.88,18.88,0,0,0-15.07,22.21l12,60.54A19.08,19.08,0,0,0,48.59,194.09Z"/><path class="cls-2" d="M608.91,520.68l-12-60.53a19.22,19.22,0,0,0-22.45-15.08l-60.91,11.59a18.88,18.88,0,0,0-15.07,22.21A19.22,19.22,0,0,0,521,494l17-3.25C475.9,580.45,364.74,624.91,256.07,601.9,133.76,576,44.17,471.37,38.22,347.43a19.2,19.2,0,0,0-20-18.16A18.93,18.93,0,0,0,0,349.05C6.81,490.28,108.89,609.53,248.28,639c123.27,26.09,249.36-24,320.32-125.35l2.79,14.12a19.21,19.21,0,0,0,22.45,15.08A18.88,18.88,0,0,0,608.91,520.68Z"/><path class="cls-2" d="M237.88,519.34a18.91,18.91,0,0,0,6.11,2.44,19.13,19.13,0,0,0,15.84-3.68L456.14,363.17a18.83,18.83,0,0,0,6.65-19.2,19.2,19.2,0,0,0-14.69-14.25l-68.21-14.44L415.23,147a19,19,0,0,0-8.71-20.09,19.24,19.24,0,0,0-21.95,1.24L188.26,283a18.84,18.84,0,0,0-6.65,19.21,19.17,19.17,0,0,0,14.7,14.24l68.21,14.44L229.17,499.26A19,19,0,0,0,237.88,519.34Zm6-231.56L367,190.63,338.55,325.92a19.09,19.09,0,0,0,14.82,22.53l47.16,10L277.44,455.59l28.41-135.3A19.1,19.1,0,0,0,291,297.76Z"/></g></g></g></svg>