<svg xmlns="http://www.w3.org/2000/svg" viewBox="0 0 419.72 132.58"><defs><style>.cls-1{fill:#17acd5;}.cls-2{fill:#fff;}.cls-3{fill:#e8a145;}.cls-4{fill:#ede300;}</style></defs><title>Recurso 1</title><g id="Capa_2" data-name="Capa 2"><g id="Capa_1-2" data-name="Capa 1"><rect class="cls-1" x="140.82" y="100.38" width="89.44" height="32.2" rx="9.61"/><path class="cls-2" d="M151.59,115.8a4,4,0,0,1,4.23-4,4.07,4.07,0,0,1,3.31,1.45l-1.38,1.26a2.28,2.28,0,0,0-1.82-.91,2.2,2.2,0,0,0,0,4.4,2.27,2.27,0,0,0,1.82-.9l1.38,1.26a4.07,4.07,0,0,1-3.31,1.45A4,4,0,0,1,151.59,115.8Z"/><path class="cls-2" d="M160.1,112h2.18v6H166v1.72H160.1Z"/><path class="cls-2" d="M166.81,112H169v7.7h-2.17Z"/><path class="cls-2" d="M170.14,115.8a4,4,0,0,1,4.23-4,4.07,4.07,0,0,1,3.31,1.45l-1.38,1.26a2.28,2.28,0,0,0-1.82-.91,2.2,2.2,0,0,0,0,4.4,2.27,2.27,0,0,0,1.82-.9l1.38,1.26a4.07,4.07,0,0,1-3.31,1.45A4,4,0,0,1,170.14,115.8Z"/><path class="cls-2" d="M181.62,116.86l-.82.87v1.92h-2.15V112h2.15v3.2l3-3.2h2.39L183,115.36l3.31,4.29h-2.53Z"/><path class="cls-2" d="M195.28,118.16H192l-.6,1.49h-2.23l3.4-7.7h2.15l3.41,7.7h-2.27Zm-.64-1.61-1-2.46-1,2.46Z"/><path class="cls-2" d="M207.21,120.55a2.75,2.75,0,0,1-2.16,1c-1.25,0-2.08-.43-3.36-1.77a3.94,3.94,0,0,1-3.44-3.94,4.29,4.29,0,0,1,8.56,0,3.87,3.87,0,0,1-2.62,3.72,1.16,1.16,0,0,0,.91.44,1.58,1.58,0,0,0,1.16-.54ZM202.53,118a2.2,2.2,0,1,0-2.08-2.2A2.06,2.06,0,0,0,202.53,118Z"/><path class="cls-2" d="M207.89,116.22V112h2.18v4.21c0,1.32.55,1.84,1.46,1.84s1.45-.52,1.45-1.84V112h2.15v4.27a3.62,3.62,0,0,1-7.24,0Z"/><path class="cls-2" d="M216.6,112h2.17v7.7H216.6Zm1.48-2.3h2.09l-2.07,1.68h-1.49Z"/><circle class="cls-3" cx="95.68" cy="31.58" r="15.76"/><polygon class="cls-1" points="35.72 92.78 37.33 78.43 46.01 78.8 46.08 88.01 52.16 88.64 41.72 104.81 41.13 93.26 35.72 92.78"/><path class="cls-4" d="M95.7,50.82A19.21,19.21,0,1,0,76.49,31.61,19.23,19.23,0,0,0,95.7,50.82Zm0-34.52A15.31,15.31,0,1,1,80.39,31.61,15.33,15.33,0,0,1,95.7,16.3Z"/><path class="cls-4" d="M69.23,37,67.14,42a2,2,0,0,0,1,2.54l5.1,2.12v5.47a2,2,0,0,0,1.95,2h5.52l2.11,5.07a1.94,1.94,0,0,0,2.54,1l5.1-2.11L94.39,62a2,2,0,0,0,2.76,0l3.91-3.92,5.07,2.1a1.94,1.94,0,0,0,2.54-1.05L110.79,54h5.48a1.94,1.94,0,0,0,1.94-1.94V46.53l5.05-2.1a1.94,1.94,0,0,0,1.06-2.54l-2.11-5.1,3.87-3.89a1.94,1.94,0,0,0,0-2.75l-3.9-3.9,2.09-5.07a2,2,0,0,0-1.06-2.54l-5.09-2.11V11.05a2,2,0,0,0-2-2h-5.53L108.54,4A2,2,0,0,0,106,3l-5.12,2.11L97,1.23a1.94,1.94,0,0,0-2.75,0L90.35,5.14,85.28,3a2,2,0,0,0-1.49,0A2,2,0,0,0,82.73,4.1l-2.1,5.1H75.14a1.94,1.94,0,0,0-2,1.94v5.53l-5,2.1a2,2,0,0,0-1,2.55l2.12,5.09L65.32,30.3a1.94,1.94,0,0,0,0,2.75Zm4.08-10.83-1.87-4.5,4.45-1.85a1.94,1.94,0,0,0,1.2-1.8V13.09h4.84a2,2,0,0,0,1.81-1.2l1.85-4.5,4.47,1.85a1.93,1.93,0,0,0,2.12-.42l3.46-3.46,3.41,3.41a1.92,1.92,0,0,0,2.12.42l4.52-1.87,1.85,4.47a1.94,1.94,0,0,0,1.8,1.2h4.88v4.85a1.94,1.94,0,0,0,1.2,1.8l4.5,1.86L118.08,26a1.94,1.94,0,0,0,.43,2.12L122,31.53,118.54,35a1.94,1.94,0,0,0-.42,2.12L120,41.58l-4.45,1.85a1.94,1.94,0,0,0-1.2,1.8v4.88h-4.83a1.94,1.94,0,0,0-1.8,1.2l-1.87,4.51L101.35,54a2,2,0,0,0-2.12.42l-3.46,3.46-3.43-3.42A1.94,1.94,0,0,0,90.22,54l-4.5,1.86-1.85-4.46a2,2,0,0,0-1.8-1.2H77.19V45.38a1.94,1.94,0,0,0-1.2-1.8l-4.51-1.87,1.84-4.47a1.94,1.94,0,0,0-.42-2.12l-3.44-3.45,3.42-3.42A2,2,0,0,0,73.31,26.12Z"/><path class="cls-2" d="M32.88,93.91a1.93,1.93,0,0,0,1.48.69h5l-.55,12.64a2,2,0,0,0,1.39,2,2.16,2.16,0,0,0,.56.08,1.94,1.94,0,0,0,1.67-1L53.84,89.15a2,2,0,0,0-1.68-3H47.45l1.23-7.92A1.94,1.94,0,0,0,46.76,76H36.83a2,2,0,0,0-1.92,1.63L32.44,92.33A2,2,0,0,0,32.88,93.91Zm5.6-14h6l-1.24,7.92a2,2,0,0,0,.45,1.57,2,2,0,0,0,1.48.68h3.56L43,99.7l.3-7a1.95,1.95,0,0,0-1.94-2H36.67Z"/><path class="cls-2" d="M9.39,87.56h0a1.94,1.94,0,0,0,.48-.09v36.1a1.94,1.94,0,0,0,1.94,1.94H74.66a1.94,1.94,0,0,0,2-1.94V87.45a1.79,1.79,0,0,0,.46.09h0A2,2,0,0,0,78.45,87L86,79.57a2,2,0,0,0,0-2.75L45,35.28a2,2,0,0,0-1.38-.58h0a2,2,0,0,0-1.38.57L29,48.46V39.09a2,2,0,0,0-1.95-2H15.12a2,2,0,0,0-1.95,2V64.22L.57,76.77A2,2,0,0,0,0,78.15a2,2,0,0,0,.57,1.38L8,87A2,2,0,0,0,9.39,87.56Zm63.32-3.62v28.41H13.76V84L43.51,54.35ZM13.76,121.62v-5.37h59v5.37ZM17.06,41h8V52.35l-8,8Zm26.52-1.63L81.82,78.17,77.1,82.84c-40.43-41-30.64-31-32.19-32.62a2,2,0,0,0-1.38-.58h0a2,2,0,0,0-1.38.57L9.39,82.85,4.7,78.15C20.23,62.72,28.09,54.86,43.58,39.41Z"/><rect class="cls-3" x="295.68" y="57.77" width="124.05" height="35.08"/><path class="cls-2" d="M140.71,11.45c0-6.7,5.13-11.45,12.12-11.45a11.67,11.67,0,0,1,9.47,4.15l-4,3.59a6.49,6.49,0,0,0-5.19-2.58A5.91,5.91,0,0,0,147,11.45a5.91,5.91,0,0,0,6.14,6.3,6.52,6.52,0,0,0,5.19-2.58l4,3.58a11.65,11.65,0,0,1-9.47,4.16C145.84,22.91,140.71,18.15,140.71,11.45Z"/><path class="cls-2" d="M163.46,11.45c0-6.6,5.2-11.45,12.24-11.45s12.24,4.85,12.24,11.45-5.19,11.46-12.24,11.46S163.46,18.06,163.46,11.45Zm18.19,0c0-3.8-2.61-6.29-6-6.29s-5.94,2.49-5.94,6.29,2.61,6.3,5.94,6.3S181.65,15.26,181.65,11.45Z"/><path class="cls-2" d="M212.18.44v22h-5.13l-9.72-11.73V22.46h-6.11V.44h5.13l9.72,11.74V.44Z"/><path class="cls-2" d="M215.45,11.45c0-6.6,5.2-11.45,12.24-11.45s12.24,4.85,12.24,11.45-5.19,11.46-12.24,11.46S215.45,18.06,215.45,11.45Zm18.19,0c0-3.8-2.61-6.29-5.95-6.29s-5.94,2.49-5.94,6.29,2.61,6.3,5.94,6.3S233.64,15.26,233.64,11.45Z"/><path class="cls-2" d="M242.08,11.45c0-6.7,5.13-11.45,12.11-11.45a11.66,11.66,0,0,1,9.47,4.15l-4,3.59a6.52,6.52,0,0,0-5.19-2.58,5.91,5.91,0,0,0-6.14,6.29,5.91,5.91,0,0,0,6.14,6.3,6.55,6.55,0,0,0,5.19-2.58l4,3.58a11.64,11.64,0,0,1-9.47,4.16C247.21,22.91,242.08,18.15,242.08,11.45Z"/><path class="cls-2" d="M284.12,17.65v4.81H266.43V.44h17.28V5.25H272.6V9h9.79v4.65H272.6v4Z"/><path class="cls-2" d="M296.74.44H303V17.52h10.51v4.94H296.74Z"/><path class="cls-2" d="M314.46,11.45C314.46,4.85,319.65,0,326.7,0s12.24,4.85,12.24,11.45-5.19,11.46-12.24,11.46S314.46,18.06,314.46,11.45Zm18.18,0c0-3.8-2.61-6.29-5.94-6.29s-5.95,2.49-5.95,6.29,2.61,6.3,5.95,6.3S332.64,15.26,332.64,11.45Z"/><path class="cls-2" d="M340.67,20.48l2.05-4.59A13.89,13.89,0,0,0,350,18.06c2.58,0,3.58-.72,3.58-1.79,0-3.5-12.52-.95-12.52-9.13,0-3.93,3.21-7.14,9.75-7.14a16.49,16.49,0,0,1,8,1.92l-1.92,4.62a13.05,13.05,0,0,0-6.11-1.69c-2.61,0-3.55.88-3.55,2,0,3.36,12.49.85,12.49,9,0,3.84-3.21,7.12-9.75,7.12A17.36,17.36,0,0,1,340.67,20.48Z"/><path class="cls-2" d="M161.7,39.67c0,5-3.78,8.12-9.79,8.12h-3.84v5.76h-6.23v-22h10.07C157.92,31.52,161.7,34.64,161.7,39.67Zm-6.29,0c0-2-1.29-3.24-3.87-3.24h-3.47v6.45h3.47C154.12,42.88,155.41,41.68,155.41,39.67Z"/><path class="cls-2" d="M174.35,47.69H171v5.86h-6.23v-22h10.07c6,0,9.79,3.12,9.79,8.15a7.31,7.31,0,0,1-4.31,6.95L185,53.55h-6.67Zm.06-11.26H171v6.45h3.46c2.58,0,3.87-1.2,3.87-3.21S177,36.43,174.41,36.43Z"/><path class="cls-2" d="M186.88,42.53c0-6.6,5.19-11.45,12.24-11.45s12.24,4.85,12.24,11.45S206.17,54,199.12,54,186.88,49.14,186.88,42.53Zm18.18,0c0-3.8-2.61-6.29-5.94-6.29s-6,2.49-6,6.29,2.61,6.3,6,6.3S205.06,46.34,205.06,42.53Z"/><path class="cls-2" d="M225.49,45.65v7.9h-6.23v-8l-8.4-14h6.57l5.23,8.75,5.22-8.75h6Z"/><path class="cls-2" d="M253.09,48.73v4.82H235.41v-22h17.27v4.82H241.57v3.71h9.79V44.7h-9.79v4Z"/><path class="cls-2" d="M255.39,42.53c0-6.7,5.13-11.45,12.11-11.45A11.66,11.66,0,0,1,277,35.23l-4,3.59a6.51,6.51,0,0,0-5.19-2.58,5.91,5.91,0,0,0-6.14,6.29,5.91,5.91,0,0,0,6.14,6.3A6.53,6.53,0,0,0,273,46.25l4,3.58A11.64,11.64,0,0,1,267.5,54C260.52,54,255.39,49.24,255.39,42.53Z"/><path class="cls-2" d="M284.25,36.46h-6.77V31.52h19.73v4.94h-6.73V53.55h-6.23Z"/><path class="cls-2" d="M298.09,42.53c0-6.6,5.2-11.45,12.24-11.45s12.24,4.85,12.24,11.45S317.38,54,310.33,54,298.09,49.14,298.09,42.53Zm18.19,0c0-3.8-2.61-6.29-5.95-6.29s-5.94,2.49-5.94,6.29,2.61,6.3,5.94,6.3S316.28,46.34,316.28,42.53Z"/><path class="cls-2" d="M324.31,51.56,326.36,47a13.88,13.88,0,0,0,7.26,2.17c2.58,0,3.59-.72,3.59-1.79,0-3.5-12.52-1-12.52-9.13,0-3.93,3.21-7.14,9.75-7.14a16.48,16.48,0,0,1,8,1.92l-1.92,4.63a12.89,12.89,0,0,0-6.1-1.7c-2.61,0-3.56.88-3.56,2,0,3.36,12.5.85,12.5,9,0,3.83-3.21,7.11-9.76,7.11A17.32,17.32,0,0,1,324.31,51.56Z"/><path class="cls-2" d="M355.37,31.52h10.41c7.3,0,12.31,4.25,12.31,11s-5,11-12.31,11H355.37Zm10.16,17.05c3.75,0,6.26-2.23,6.26-6s-2.51-6-6.26-6H361.6V48.57Z"/><path class="cls-2" d="M399.05,48.73v4.82H381.36v-22h17.28v4.82H387.53v3.71h9.79V44.7h-9.79v4Z"/><path class="cls-2" d="M159.53,79.81v4.82H141.84v-22h17.28v4.82H148v3.71h9.79v4.66H148v4Z"/><path class="cls-2" d="M184,62.6v22h-5.13L169.1,72.89V84.63H163v-22h5.13l9.72,11.74V62.6Z"/><path class="cls-2" d="M206,79.81v4.82H188.36v-22h17.27v4.82H194.52v3.71h9.79v4.66h-9.79v4Z"/><path class="cls-2" d="M219.13,78.77h-3.39v5.86H209.5v-22h10.07c6,0,9.79,3.12,9.79,8.15a7.32,7.32,0,0,1-4.31,7l4.75,6.92h-6.67Zm.07-11.26h-3.46V74h3.46c2.58,0,3.87-1.19,3.87-3.21S221.78,67.51,219.2,67.51Z"/><path class="cls-2" d="M247.55,73.14h5.51v9.13a16.49,16.49,0,0,1-9.25,2.8c-7,0-12.15-4.75-12.15-11.46s5.13-11.45,12.27-11.45c4.12,0,7.46,1.42,9.63,4l-4,3.59a6.86,6.86,0,0,0-5.34-2.46,6.3,6.3,0,0,0-.07,12.59,7.82,7.82,0,0,0,3.37-.73Z"/><path class="cls-2" d="M257,62.6h6.23v22H257ZM261.27,56h6l-5.91,4.78h-4.28Z"/><path class="cls-2" d="M282.45,80.35h-9.31l-1.73,4.28h-6.36l9.72-22h6.14l9.75,22h-6.48Zm-1.83-4.6-2.83-7-2.83,7Z"/><path class="cls-2" d="M300,82.64l2-4.59a13.89,13.89,0,0,0,7.27,2.17c2.58,0,3.58-.72,3.58-1.79,0-3.49-12.52-1-12.52-9.13,0-3.93,3.21-7.14,9.76-7.14a16.48,16.48,0,0,1,8,1.92l-1.92,4.63a13,13,0,0,0-6.11-1.7c-2.61,0-3.55.88-3.55,2,0,3.37,12.49.85,12.49,9,0,3.84-3.21,7.11-9.75,7.11A17.36,17.36,0,0,1,300,82.64Z"/><path class="cls-2" d="M320.81,73.61c0-6.6,5.2-11.45,12.24-11.45S345.29,67,345.29,73.61s-5.19,11.46-12.24,11.46S320.81,80.22,320.81,73.61Zm18.19,0c0-3.8-2.61-6.29-5.95-6.29s-5.94,2.49-5.94,6.29,2.61,6.3,5.94,6.3S339,77.42,339,73.61Z"/><path class="cls-2" d="M348.57,62.6h6.23V79.69h10.51v4.94H348.57Z"/><path class="cls-2" d="M382.78,80.35h-9.32l-1.73,4.28h-6.35l9.72-22h6.13l9.76,22h-6.48ZM381,75.75l-2.83-7-2.83,7Z"/><path class="cls-2" d="M402.38,78.77H399v5.86h-6.23v-22h10.07c6,0,9.79,3.12,9.79,8.15a7.34,7.34,0,0,1-4.31,7l4.75,6.92h-6.67Zm.07-11.26H399V74h3.47c2.58,0,3.87-1.19,3.87-3.21S405,67.51,402.45,67.51Z"/></g></g></svg>