<svg xmlns="http://www.w3.org/2000/svg" viewBox="0 0 131.61 49.98"><defs><style>.cls-1{fill:#e9a134;}.cls-2{fill:#fff;}</style></defs><g id="Capa_2" data-name="Capa 2"><g id="Capa_1-2" data-name="Capa 1"><rect class="cls-1" width="131.61" height="49.98"/><path class="cls-2" d="M11.1,26.34c0-3.5,1.93-5.48,4.54-5.48s4.54,2,4.54,5.48-1.92,5.47-4.54,5.47S11.1,29.83,11.1,26.34Zm6.61,0c0-2.41-.85-3.41-2.07-3.41s-2.06,1-2.06,3.41.85,3.4,2.06,3.4S17.71,28.74,17.71,26.34Z"/><path class="cls-2" d="M25.37,21V31.63H22.91V23H20.79V21Z"/><path class="cls-2" d="M36.08,28.56c0,2-1.79,3.25-4.48,3.25s-4.45-1.25-4.45-3.25a2.71,2.71,0,0,1,1.6-2.5,2.44,2.44,0,0,1-1.22-2.18c0-1.86,1.66-3,4.07-3s4.1,1.16,4.1,3a2.44,2.44,0,0,1-1.24,2.18A2.7,2.7,0,0,1,36.08,28.56Zm-2.48-.08c0-.93-.78-1.51-2-1.51s-2,.58-2,1.51.76,1.53,2,1.53S33.6,29.42,33.6,28.48ZM30,24c0,.8.64,1.3,1.64,1.3s1.66-.5,1.66-1.3-.66-1.33-1.66-1.33S30,23.16,30,24Z"/><path class="cls-2" d="M37.19,26.34c0-3.5,1.94-5.48,4.54-5.48s4.55,2,4.55,5.48-1.93,5.47-4.55,5.47S37.19,29.83,37.19,26.34Zm6.62,0c0-2.41-.85-3.41-2.08-3.41s-2,1-2,3.41.84,3.4,2,3.4S43.81,28.74,43.81,26.34Z"/><path class="cls-2" d="M47.47,26.34c0-3.5,1.93-5.48,4.54-5.48s4.54,2,4.54,5.48S54.63,31.81,52,31.81,47.47,29.83,47.47,26.34Zm6.61,0c0-2.41-.85-3.41-2.07-3.41S50,23.93,50,26.34s.85,3.4,2.06,3.4S54.08,28.74,54.08,26.34Z"/><path class="cls-2" d="M57.74,26.34c0-3.5,1.94-5.48,4.54-5.48s4.54,2,4.54,5.48-1.92,5.47-4.54,5.47S57.74,29.83,57.74,26.34Zm6.61,0c0-2.41-.84-3.41-2.07-3.41s-2.06,1-2.06,3.41.85,3.4,2.06,3.4S64.35,28.74,64.35,26.34Z"/><path class="cls-2" d="M76.47,26.11c0,3.66-2.19,5.7-5.4,5.7a5.69,5.69,0,0,1-2.94-.72l.91-1.8a3.47,3.47,0,0,0,2,.53c1.76,0,2.91-1.05,3-3.09a3.63,3.63,0,0,1-2.64.95,3.36,3.36,0,0,1-3.65-3.3c0-2.16,1.78-3.52,4-3.52C74.67,20.86,76.47,22.69,76.47,26.11Zm-2.74-1.85c0-.91-.68-1.57-1.84-1.57a1.58,1.58,0,0,0-1.77,1.57,1.6,1.6,0,0,0,1.8,1.59A1.64,1.64,0,0,0,73.73,24.26Z"/><path class="cls-2" d="M81.65,21V31.63H79.19V23H77.07V21Z"/><path class="cls-2" d="M91.32,28.39c0,1.79-1.38,3.42-4.39,3.42a7.21,7.21,0,0,1-4-1.13l1-1.88a5.11,5.11,0,0,0,3,1c1.22,0,2-.5,2-1.37s-.59-1.3-2-1.3H85.75V25.47L87.93,23H83.42V21h7.41v1.59l-2.39,2.72A3,3,0,0,1,91.32,28.39Z"/><path class="cls-2" d="M100.61,21v1.59l-3.94,9H94L97.81,23H94.29v1.72H92.11V21Z"/><path class="cls-2" d="M109.41,28.39c0,1.79-1.38,3.42-4.39,3.42a7.26,7.26,0,0,1-4-1.13l1-1.88a5.16,5.16,0,0,0,3,1c1.23,0,2-.5,2-1.37s-.59-1.3-2-1.3h-1.12V25.47L106,23h-4.51V21h7.42v1.59l-2.39,2.72A3,3,0,0,1,109.41,28.39Z"/><path class="cls-2" d="M118.7,21v1.59l-3.93,9H112.1L115.9,23h-3.51v1.72h-2.18V21Z"/></g></g></svg>