<svg xmlns="http://www.w3.org/2000/svg" viewBox="0 0 152.9 49.98"><defs><style>.cls-1{fill:#00acd9;}.cls-2{fill:#fff;}</style></defs><g id="Capa_2" data-name="Capa 2"><g id="Capa_1-2" data-name="Capa 1"><path class="cls-1" d="M142.83,0H0V50H142.83c5.56,0,10.07-3.59,10.07-8V8C152.9,3.59,148.39,0,142.83,0Z"/><path class="cls-2" d="M20.93,26.5a15.83,15.83,0,0,1,2.34-8.76h2.79a17.13,17.13,0,0,0-2.27,8.76,17.14,17.14,0,0,0,2.27,8.77H23.27A15.93,15.93,0,0,1,20.93,26.5Z"/><path class="cls-2" d="M36.88,27.51c0,2.33-1.7,4.35-5.44,4.35a9,9,0,0,1-5-1.41l1.19-2.32a6.32,6.32,0,0,0,3.73,1.18c1.52,0,2.45-.63,2.45-1.7s-.67-1.71-3.05-1.71H27.41l.67-7.37h8V21H30.61l-.2,2.49h1.06C35.35,23.45,36.88,25.19,36.88,27.51Z"/><path class="cls-2" d="M37.58,35.27a17,17,0,0,0,2.28-8.77,17,17,0,0,0-2.28-8.76h2.79a15.59,15.59,0,0,1,2.36,8.76,15.69,15.69,0,0,1-2.36,8.77Z"/><path class="cls-2" d="M59.81,27.63c0,2.21-1.71,4.23-5.43,4.23a9,9,0,0,1-5-1.41l1.18-2.32a6.35,6.35,0,0,0,3.74,1.18c1.52,0,2.46-.62,2.46-1.68S56,26,54.3,26H52.92V24L55.61,21H50V18.53h9.18v2l-3,3.37C58.61,24.24,59.81,25.7,59.81,27.63Z"/><path class="cls-2" d="M70.8,27.63c0,2.21-1.7,4.23-5.43,4.23a9,9,0,0,1-5-1.41l1.18-2.32a6.36,6.36,0,0,0,3.75,1.18c1.51,0,2.45-.62,2.45-1.68S67,26,65.3,26H63.91V24L66.61,21H61V18.53H70.2v2l-3,3.37C69.6,24.24,70.8,25.7,70.8,27.63Z"/><path class="cls-2" d="M83,27.5c0,2.67-2.19,4.36-5,4.36-3.62,0-5.86-2.27-5.86-6.5,0-4.53,2.73-7.06,6.68-7.06a7,7,0,0,1,3.65.9l-1.12,2.23A4.29,4.29,0,0,0,79,20.77c-2.19,0-3.6,1.3-3.69,3.8a4.46,4.46,0,0,1,3.24-1.16C81.05,23.41,83,25,83,27.5Zm-2.94.14a2,2,0,0,0-2.23-2,2,2,0,0,0-2.26,2c0,1.13.84,1.95,2.3,1.95A2,2,0,0,0,80.09,27.64Z"/><path class="cls-2" d="M96.14,28.88H94v2.75h-3V28.88H84v-2l6.18-8.31h3.18l-5.73,7.88h3.52V24H94v2.45h2.13Z"/><path class="cls-2" d="M106.8,29.16v2.47H96.89v-2L102,24.89c1.16-1.1,1.37-1.78,1.37-2.41,0-1-.72-1.63-2.1-1.63a3.22,3.22,0,0,0-2.72,1.31l-2.21-1.42a6.11,6.11,0,0,1,5.21-2.44c2.92,0,4.87,1.5,4.87,3.88,0,1.27-.36,2.43-2.19,4.14l-3,2.84Z"/><path class="cls-2" d="M119.87,28.88h-2.13v2.75h-3V28.88h-7.06v-2l6.18-8.31h3.18l-5.73,7.88h3.52V24h2.87v2.45h2.13Z"/><path class="cls-2" d="M125.36,18.53v13.1h-3V21h-2.62V18.53Z"/></g></g></svg>